<svg width="92" height="92" viewBox="0 0 92 92" fill="none" xmlns="http://www.w3.org/2000/svg">
<g id="QR Code">
<path id="Vector" d="M5.88672 7.72559H9.09568V10.7875H5.88672V7.72559ZM9.09568 7.72559H12.3046V10.7875H9.09568V7.72559ZM12.3046 7.72559H15.5136V10.7875H12.3046V7.72559ZM15.5136 7.72559H18.7226V10.7875H15.5136V7.72559ZM18.7226 7.72559H21.9315V10.7875H18.7226V7.72559ZM21.9315 7.72559H25.1405V10.7875H21.9315V7.72559ZM25.1405 7.72559H28.3494V10.7875H25.1405V7.72559ZM41.1853 7.72559H44.3942V10.7875H41.1853V7.72559ZM50.8122 7.72559H54.0211V10.7875H50.8122V7.72559ZM54.0211 7.72559H57.2301V10.7875H54.0211V7.72559ZM57.2301 7.72559H60.439V10.7875H57.2301V7.72559ZM63.648 7.72559H66.857V10.7875H63.648V7.72559ZM66.857 7.72559H70.0659V10.7875H66.857V7.72559ZM70.0659 7.72559H73.2749V10.7875H70.0659V7.72559ZM73.2749 7.72559H76.4838V10.7875H73.2749V7.72559ZM76.4838 7.72559H79.6928V10.7875H76.4838V7.72559ZM79.6928 7.72559H82.9018V10.7875H79.6928V7.72559ZM82.9018 7.72559H86.1107V10.7875H82.9018V7.72559ZM5.88672 10.7875H9.09568V13.8495H5.88672V10.7875ZM25.1405 10.7875H28.3494V13.8495H25.1405V10.7875ZM34.7674 10.7875H37.9763V13.8495H34.7674V10.7875ZM47.6032 10.7875H50.8122V13.8495H47.6032V10.7875ZM50.8122 10.7875H54.0211V13.8495H50.8122V10.7875ZM57.2301 10.7875H60.439V13.8495H57.2301V10.7875ZM63.648 10.7875H66.857V13.8495H63.648V10.7875ZM82.9018 10.7875H86.1107V13.8495H82.9018V10.7875ZM5.88672 13.8495H9.09568V16.9114H5.88672V13.8495ZM12.3046 13.8495H15.5136V16.9114H12.3046V13.8495ZM15.5136 13.8495H18.7226V16.9114H15.5136V13.8495ZM18.7226 13.8495H21.9315V16.9114H18.7226V13.8495ZM25.1405 13.8495H28.3494V16.9114H25.1405V13.8495ZM34.7674 13.8495H37.9763V16.9114H34.7674V13.8495ZM37.9763 13.8495H41.1853V16.9114H37.9763V13.8495ZM44.3942 13.8495H47.6032V16.9114H44.3942V13.8495ZM50.8122 13.8495H54.0211V16.9114H50.8122V13.8495ZM54.0211 13.8495H57.2301V16.9114H54.0211V13.8495ZM63.648 13.8495H66.857V16.9114H63.648V13.8495ZM70.0659 13.8495H73.2749V16.9114H70.0659V13.8495ZM73.2749 13.8495H76.4838V16.9114H73.2749V13.8495ZM76.4838 13.8495H79.6928V16.9114H76.4838V13.8495ZM82.9018 13.8495H86.1107V16.9114H82.9018V13.8495ZM5.88672 16.9114H9.09568V19.9733H5.88672V16.9114ZM12.3046 16.9114H15.5136V19.9733H12.3046V16.9114ZM15.5136 16.9114H18.7226V19.9733H15.5136V16.9114ZM18.7226 16.9114H21.9315V19.9733H18.7226V16.9114ZM25.1405 16.9114H28.3494V19.9733H25.1405V16.9114ZM31.5584 16.9114H34.7674V19.9733H31.5584V16.9114ZM34.7674 16.9114H37.9763V19.9733H34.7674V16.9114ZM44.3942 16.9114H47.6032V19.9733H44.3942V16.9114ZM50.8122 16.9114H54.0211V19.9733H50.8122V16.9114ZM54.0211 16.9114H57.2301V19.9733H54.0211V16.9114ZM63.648 16.9114H66.857V19.9733H63.648V16.9114ZM70.0659 16.9114H73.2749V19.9733H70.0659V16.9114ZM73.2749 16.9114H76.4838V19.9733H73.2749V16.9114ZM76.4838 16.9114H79.6928V19.9733H76.4838V16.9114ZM82.9018 16.9114H86.1107V19.9733H82.9018V16.9114ZM5.88672 19.9733H9.09568V23.0353H5.88672V19.9733ZM12.3046 19.9733H15.5136V23.0353H12.3046V19.9733ZM15.5136 19.9733H18.7226V23.0353H15.5136V19.9733ZM18.7226 19.9733H21.9315V23.0353H18.7226V19.9733ZM25.1405 19.9733H28.3494V23.0353H25.1405V19.9733ZM37.9763 19.9733H41.1853V23.0353H37.9763V19.9733ZM41.1853 19.9733H44.3942V23.0353H41.1853V19.9733ZM44.3942 19.9733H47.6032V23.0353H44.3942V19.9733ZM47.6032 19.9733H50.8122V23.0353H47.6032V19.9733ZM50.8122 19.9733H54.0211V23.0353H50.8122V19.9733ZM63.648 19.9733H66.857V23.0353H63.648V19.9733ZM70.0659 19.9733H73.2749V23.0353H70.0659V19.9733ZM73.2749 19.9733H76.4838V23.0353H73.2749V19.9733ZM76.4838 19.9733H79.6928V23.0353H76.4838V19.9733ZM82.9018 19.9733H86.1107V23.0353H82.9018V19.9733ZM5.88672 23.0353H9.09568V26.0972H5.88672V23.0353ZM25.1405 23.0353H28.3494V26.0972H25.1405V23.0353ZM31.5584 23.0353H34.7674V26.0972H31.5584V23.0353ZM41.1853 23.0353H44.3942V26.0972H41.1853V23.0353ZM57.2301 23.0353H60.439V26.0972H57.2301V23.0353ZM63.648 23.0353H66.857V26.0972H63.648V23.0353ZM82.9018 23.0353H86.1107V26.0972H82.9018V23.0353ZM5.88672 26.0972H9.09568V29.1591H5.88672V26.0972ZM9.09568 26.0972H12.3046V29.1591H9.09568V26.0972ZM12.3046 26.0972H15.5136V29.1591H12.3046V26.0972ZM15.5136 26.0972H18.7226V29.1591H15.5136V26.0972ZM18.7226 26.0972H21.9315V29.1591H18.7226V26.0972ZM21.9315 26.0972H25.1405V29.1591H21.9315V26.0972ZM25.1405 26.0972H28.3494V29.1591H25.1405V26.0972ZM31.5584 26.0972H34.7674V29.1591H31.5584V26.0972ZM37.9763 26.0972H41.1853V29.1591H37.9763V26.0972ZM44.3942 26.0972H47.6032V29.1591H44.3942V26.0972ZM50.8122 26.0972H54.0211V29.1591H50.8122V26.0972ZM57.2301 26.0972H60.439V29.1591H57.2301V26.0972ZM63.648 26.0972H66.857V29.1591H63.648V26.0972ZM66.857 26.0972H70.0659V29.1591H66.857V26.0972ZM70.0659 26.0972H73.2749V29.1591H70.0659V26.0972ZM73.2749 26.0972H76.4838V29.1591H73.2749V26.0972ZM76.4838 26.0972H79.6928V29.1591H76.4838V26.0972ZM79.6928 26.0972H82.9018V29.1591H79.6928V26.0972ZM82.9018 26.0972H86.1107V29.1591H82.9018V26.0972ZM31.5584 29.1591H34.7674V32.2211H31.5584V29.1591ZM34.7674 29.1591H37.9763V32.2211H34.7674V29.1591ZM37.9763 29.1591H41.1853V32.2211H37.9763V29.1591ZM50.8122 29.1591H54.0211V32.2211H50.8122V29.1591ZM54.0211 29.1591H57.2301V32.2211H54.0211V29.1591ZM57.2301 29.1591H60.439V32.2211H57.2301V29.1591ZM9.09568 32.2211H12.3046V35.283H9.09568V32.2211ZM12.3046 32.2211H15.5136V35.283H12.3046V32.2211ZM25.1405 32.2211H28.3494V35.283H25.1405V32.2211ZM47.6032 32.2211H50.8122V35.283H47.6032V32.2211ZM50.8122 32.2211H54.0211V35.283H50.8122V32.2211ZM57.2301 32.2211H60.439V35.283H57.2301V32.2211ZM63.648 32.2211H66.857V35.283H63.648V32.2211ZM66.857 32.2211H70.0659V35.283H66.857V32.2211ZM73.2749 32.2211H76.4838V35.283H73.2749V32.2211ZM9.09568 35.283H12.3046V38.345H9.09568V35.283ZM12.3046 35.283H15.5136V38.345H12.3046V35.283ZM18.7226 35.283H21.9315V38.345H18.7226V35.283ZM28.3494 35.283H31.5584V38.345H28.3494V35.283ZM37.9763 35.283H41.1853V38.345H37.9763V35.283ZM41.1853 35.283H44.3942V38.345H41.1853V35.283ZM44.3942 35.283H47.6032V38.345H44.3942V35.283ZM47.6032 35.283H50.8122V38.345H47.6032V35.283ZM50.8122 35.283H54.0211V38.345H50.8122V35.283ZM54.0211 35.283H57.2301V38.345H54.0211V35.283ZM57.2301 35.283H60.439V38.345H57.2301V35.283ZM63.648 35.283H66.857V38.345H63.648V35.283ZM66.857 35.283H70.0659V38.345H66.857V35.283ZM73.2749 35.283H76.4838V38.345H73.2749V35.283ZM79.6928 35.283H82.9018V38.345H79.6928V35.283ZM82.9018 35.283H86.1107V38.345H82.9018V35.283ZM25.1405 38.345H28.3494V41.4069H25.1405V38.345ZM41.1853 38.345H44.3942V41.4069H41.1853V38.345ZM54.0211 38.345H57.2301V41.4069H54.0211V38.345ZM60.439 38.345H63.648V41.4069H60.439V38.345ZM66.857 38.345H70.0659V41.4069H66.857V38.345ZM73.2749 38.345H76.4838V41.4069H73.2749V38.345ZM76.4838 38.345H79.6928V41.4069H76.4838V38.345ZM82.9018 38.345H86.1107V41.4069H82.9018V38.345ZM5.88672 41.4069H9.09568V44.4688H5.88672V41.4069ZM9.09568 41.4069H12.3046V44.4688H9.09568V41.4069ZM18.7226 41.4069H21.9315V44.4688H18.7226V41.4069ZM28.3494 41.4069H31.5584V44.4688H28.3494V41.4069ZM34.7674 41.4069H37.9763V44.4688H34.7674V41.4069ZM37.9763 41.4069H41.1853V44.4688H37.9763V41.4069ZM47.6032 41.4069H50.8122V44.4688H47.6032V41.4069ZM54.0211 41.4069H57.2301V44.4688H54.0211V41.4069ZM60.439 41.4069H63.648V44.4688H60.439V41.4069ZM66.857 41.4069H70.0659V44.4688H66.857V41.4069ZM73.2749 41.4069H76.4838V44.4688H73.2749V41.4069ZM5.88672 44.4688H9.09568V47.5308H5.88672V44.4688ZM9.09568 44.4688H12.3046V47.5308H9.09568V44.4688ZM15.5136 44.4688H18.7226V47.5308H15.5136V44.4688ZM25.1405 44.4688H28.3494V47.5308H25.1405V44.4688ZM28.3494 44.4688H31.5584V47.5308H28.3494V44.4688ZM31.5584 44.4688H34.7674V47.5308H31.5584V44.4688ZM34.7674 44.4688H37.9763V47.5308H34.7674V44.4688ZM37.9763 44.4688H41.1853V47.5308H37.9763V44.4688ZM47.6032 44.4688H50.8122V47.5308H47.6032V44.4688ZM54.0211 44.4688H57.2301V47.5308H54.0211V44.4688ZM57.2301 44.4688H60.439V47.5308H57.2301V44.4688ZM63.648 44.4688H66.857V47.5308H63.648V44.4688ZM66.857 44.4688H70.0659V47.5308H66.857V44.4688ZM82.9018 44.4688H86.1107V47.5308H82.9018V44.4688ZM12.3046 47.5308H15.5136V50.5927H12.3046V47.5308ZM15.5136 47.5308H18.7226V50.5927H15.5136V47.5308ZM18.7226 47.5308H21.9315V50.5927H18.7226V47.5308ZM37.9763 47.5308H41.1853V50.5927H37.9763V47.5308ZM41.1853 47.5308H44.3942V50.5927H41.1853V47.5308ZM44.3942 47.5308H47.6032V50.5927H44.3942V47.5308ZM54.0211 47.5308H57.2301V50.5927H54.0211V47.5308ZM57.2301 47.5308H60.439V50.5927H57.2301V47.5308ZM63.648 47.5308H66.857V50.5927H63.648V47.5308ZM66.857 47.5308H70.0659V50.5927H66.857V47.5308ZM79.6928 47.5308H82.9018V50.5927H79.6928V47.5308ZM82.9018 47.5308H86.1107V50.5927H82.9018V47.5308ZM5.88672 50.5927H9.09568V53.6546H5.88672V50.5927ZM9.09568 50.5927H12.3046V53.6546H9.09568V50.5927ZM15.5136 50.5927H18.7226V53.6546H15.5136V50.5927ZM21.9315 50.5927H25.1405V53.6546H21.9315V50.5927ZM25.1405 50.5927H28.3494V53.6546H25.1405V50.5927ZM31.5584 50.5927H34.7674V53.6546H31.5584V50.5927ZM34.7674 50.5927H37.9763V53.6546H34.7674V50.5927ZM37.9763 50.5927H41.1853V53.6546H37.9763V50.5927ZM44.3942 50.5927H47.6032V53.6546H44.3942V50.5927ZM54.0211 50.5927H57.2301V53.6546H54.0211V50.5927ZM57.2301 50.5927H60.439V53.6546H57.2301V50.5927ZM63.648 50.5927H66.857V53.6546H63.648V50.5927ZM73.2749 50.5927H76.4838V53.6546H73.2749V50.5927ZM76.4838 50.5927H79.6928V53.6546H76.4838V50.5927ZM82.9018 50.5927H86.1107V53.6546H82.9018V50.5927ZM12.3046 53.6546H15.5136V56.7166H12.3046V53.6546ZM15.5136 53.6546H18.7226V56.7166H15.5136V53.6546ZM18.7226 53.6546H21.9315V56.7166H18.7226V53.6546ZM28.3494 53.6546H31.5584V56.7166H28.3494V53.6546ZM37.9763 53.6546H41.1853V56.7166H37.9763V53.6546ZM50.8122 53.6546H54.0211V56.7166H50.8122V53.6546ZM54.0211 53.6546H57.2301V56.7166H54.0211V53.6546ZM57.2301 53.6546H60.439V56.7166H57.2301V53.6546ZM60.439 53.6546H63.648V56.7166H60.439V53.6546ZM63.648 53.6546H66.857V56.7166H63.648V53.6546ZM66.857 53.6546H70.0659V56.7166H66.857V53.6546ZM70.0659 53.6546H73.2749V56.7166H70.0659V53.6546ZM73.2749 53.6546H76.4838V56.7166H73.2749V53.6546ZM5.88672 56.7166H9.09568V59.7785H5.88672V56.7166ZM9.09568 56.7166H12.3046V59.7785H9.09568V56.7166ZM12.3046 56.7166H15.5136V59.7785H12.3046V56.7166ZM18.7226 56.7166H21.9315V59.7785H18.7226V56.7166ZM25.1405 56.7166H28.3494V59.7785H25.1405V56.7166ZM31.5584 56.7166H34.7674V59.7785H31.5584V56.7166ZM41.1853 56.7166H44.3942V59.7785H41.1853V56.7166ZM57.2301 56.7166H60.439V59.7785H57.2301V56.7166ZM60.439 56.7166H63.648V59.7785H60.439V56.7166ZM63.648 56.7166H66.857V59.7785H63.648V56.7166ZM66.857 56.7166H70.0659V59.7785H66.857V56.7166ZM70.0659 56.7166H73.2749V59.7785H70.0659V56.7166ZM79.6928 56.7166H82.9018V59.7785H79.6928V56.7166ZM31.5584 59.7785H34.7674V62.8404H31.5584V59.7785ZM34.7674 59.7785H37.9763V62.8404H34.7674V59.7785ZM37.9763 59.7785H41.1853V62.8404H37.9763V59.7785ZM41.1853 59.7785H44.3942V62.8404H41.1853V59.7785ZM47.6032 59.7785H50.8122V62.8404H47.6032V59.7785ZM50.8122 59.7785H54.0211V62.8404H50.8122V59.7785ZM57.2301 59.7785H60.439V62.8404H57.2301V59.7785ZM70.0659 59.7785H73.2749V62.8404H70.0659V59.7785ZM82.9018 59.7785H86.1107V62.8404H82.9018V59.7785ZM5.88672 62.8404H9.09568V65.9024H5.88672V62.8404ZM9.09568 62.8404H12.3046V65.9024H9.09568V62.8404ZM12.3046 62.8404H15.5136V65.9024H12.3046V62.8404ZM15.5136 62.8404H18.7226V65.9024H15.5136V62.8404ZM18.7226 62.8404H21.9315V65.9024H18.7226V62.8404ZM21.9315 62.8404H25.1405V65.9024H21.9315V62.8404ZM25.1405 62.8404H28.3494V65.9024H25.1405V62.8404ZM37.9763 62.8404H41.1853V65.9024H37.9763V62.8404ZM41.1853 62.8404H44.3942V65.9024H41.1853V62.8404ZM50.8122 62.8404H54.0211V65.9024H50.8122V62.8404ZM57.2301 62.8404H60.439V65.9024H57.2301V62.8404ZM63.648 62.8404H66.857V65.9024H63.648V62.8404ZM70.0659 62.8404H73.2749V65.9024H70.0659V62.8404ZM82.9018 62.8404H86.1107V65.9024H82.9018V62.8404ZM5.88672 65.9024H9.09568V68.9643H5.88672V65.9024ZM25.1405 65.9024H28.3494V68.9643H25.1405V65.9024ZM34.7674 65.9024H37.9763V68.9643H34.7674V65.9024ZM37.9763 65.9024H41.1853V68.9643H37.9763V65.9024ZM44.3942 65.9024H47.6032V68.9643H44.3942V65.9024ZM47.6032 65.9024H50.8122V68.9643H47.6032V65.9024ZM57.2301 65.9024H60.439V68.9643H57.2301V65.9024ZM70.0659 65.9024H73.2749V68.9643H70.0659V65.9024ZM79.6928 65.9024H82.9018V68.9643H79.6928V65.9024ZM5.88672 68.9643H9.09568V72.0263H5.88672V68.9643ZM12.3046 68.9643H15.5136V72.0263H12.3046V68.9643ZM15.5136 68.9643H18.7226V72.0263H15.5136V68.9643ZM18.7226 68.9643H21.9315V72.0263H18.7226V68.9643ZM25.1405 68.9643H28.3494V72.0263H25.1405V68.9643ZM34.7674 68.9643H37.9763V72.0263H34.7674V68.9643ZM37.9763 68.9643H41.1853V72.0263H37.9763V68.9643ZM50.8122 68.9643H54.0211V72.0263H50.8122V68.9643ZM54.0211 68.9643H57.2301V72.0263H54.0211V68.9643ZM57.2301 68.9643H60.439V72.0263H57.2301V68.9643ZM60.439 68.9643H63.648V72.0263H60.439V68.9643ZM63.648 68.9643H66.857V72.0263H63.648V68.9643ZM66.857 68.9643H70.0659V72.0263H66.857V68.9643ZM70.0659 68.9643H73.2749V72.0263H70.0659V68.9643ZM79.6928 68.9643H82.9018V72.0263H79.6928V68.9643ZM82.9018 68.9643H86.1107V72.0263H82.9018V68.9643ZM5.88672 72.0263H9.09568V75.0882H5.88672V72.0263ZM12.3046 72.0263H15.5136V75.0882H12.3046V72.0263ZM15.5136 72.0263H18.7226V75.0882H15.5136V72.0263ZM18.7226 72.0263H21.9315V75.0882H18.7226V72.0263ZM25.1405 72.0263H28.3494V75.0882H25.1405V72.0263ZM34.7674 72.0263H37.9763V75.0882H34.7674V72.0263ZM37.9763 72.0263H41.1853V75.0882H37.9763V72.0263ZM41.1853 72.0263H44.3942V75.0882H41.1853V72.0263ZM44.3942 72.0263H47.6032V75.0882H44.3942V72.0263ZM54.0211 72.0263H57.2301V75.0882H54.0211V72.0263ZM60.439 72.0263H63.648V75.0882H60.439V72.0263ZM70.0659 72.0263H73.2749V75.0882H70.0659V72.0263ZM76.4838 72.0263H79.6928V75.0882H76.4838V72.0263ZM79.6928 72.0263H82.9018V75.0882H79.6928V72.0263ZM5.88672 75.0882H9.09568V78.1501H5.88672V75.0882ZM12.3046 75.0882H15.5136V78.1501H12.3046V75.0882ZM15.5136 75.0882H18.7226V78.1501H15.5136V75.0882ZM18.7226 75.0882H21.9315V78.1501H18.7226V75.0882ZM25.1405 75.0882H28.3494V78.1501H25.1405V75.0882ZM31.5584 75.0882H34.7674V78.1501H31.5584V75.0882ZM47.6032 75.0882H50.8122V78.1501H47.6032V75.0882ZM50.8122 75.0882H54.0211V78.1501H50.8122V75.0882ZM54.0211 75.0882H57.2301V78.1501H54.0211V75.0882ZM57.2301 75.0882H60.439V78.1501H57.2301V75.0882ZM60.439 75.0882H63.648V78.1501H60.439V75.0882ZM66.857 75.0882H70.0659V78.1501H66.857V75.0882ZM70.0659 75.0882H73.2749V78.1501H70.0659V75.0882ZM73.2749 75.0882H76.4838V78.1501H73.2749V75.0882ZM79.6928 75.0882H82.9018V78.1501H79.6928V75.0882ZM82.9018 75.0882H86.1107V78.1501H82.9018V75.0882ZM5.88672 78.1501H9.09568V81.2121H5.88672V78.1501ZM25.1405 78.1501H28.3494V81.2121H25.1405V78.1501ZM31.5584 78.1501H34.7674V81.2121H31.5584V78.1501ZM34.7674 78.1501H37.9763V81.2121H34.7674V78.1501ZM37.9763 78.1501H41.1853V81.2121H37.9763V78.1501ZM47.6032 78.1501H50.8122V81.2121H47.6032V78.1501ZM57.2301 78.1501H60.439V81.2121H57.2301V78.1501ZM60.439 78.1501H63.648V81.2121H60.439V78.1501ZM63.648 78.1501H66.857V81.2121H63.648V78.1501ZM66.857 78.1501H70.0659V81.2121H66.857V78.1501ZM70.0659 78.1501H73.2749V81.2121H70.0659V78.1501ZM5.88672 81.2121H9.09568V84.274H5.88672V81.2121ZM9.09568 81.2121H12.3046V84.274H9.09568V81.2121ZM12.3046 81.2121H15.5136V84.274H12.3046V81.2121ZM15.5136 81.2121H18.7226V84.274H15.5136V81.2121ZM18.7226 81.2121H21.9315V84.274H18.7226V81.2121ZM21.9315 81.2121H25.1405V84.274H21.9315V81.2121ZM25.1405 81.2121H28.3494V84.274H25.1405V81.2121ZM37.9763 81.2121H41.1853V84.274H37.9763V81.2121ZM44.3942 81.2121H47.6032V84.274H44.3942V81.2121ZM57.2301 81.2121H60.439V84.274H57.2301V81.2121ZM63.648 81.2121H66.857V84.274H63.648V81.2121ZM73.2749 81.2121H76.4838V84.274H73.2749V81.2121ZM82.9018 81.2121H86.1107V84.274H82.9018V81.2121Z" fill="white"/>
</g>
</svg>
